<svg xmlns="http://www.w3.org/2000/svg" shape-rendering="geometricPrecision" text-rendering="geometricPrecision" image-rendering="optimizeQuality" fill-rule="evenodd" clip-rule="evenodd" viewBox="0 0 512 512"><g fill-rule="nonzero"><path d="M255.998 0c70.69 0 134.694 28.657 181.017 74.981C483.342 121.308 512 185.309 512 255.998c0 70.69-28.655 134.694-74.985 181.017C390.692 483.345 326.688 512 255.998 512c-70.689 0-134.69-28.658-181.017-74.985C28.657 390.692 0 326.688 0 255.998c0-70.689 28.657-134.687 74.981-181.017C121.311 28.657 185.309 0 255.998 0z"/><path fill="#fff" d="M320.507 296.057l4.499 50.405c-12.599 5.202-28.403 7.802-47.405 7.802-19.002 0-34.253-2-45.756-6.004-11.5-4-20.551-10.298-27.153-18.899-6.601-8.602-11.199-18.702-13.8-30.304-2.601-11.602-3.902-25.904-3.902-42.906s1.301-31.354 3.902-43.055 7.199-21.853 13.8-30.454c12.803-16.603 36.304-24.904 70.509-24.904 7.602 0 16.552.751 26.853 2.253 10.302 1.498 17.951 3.348 22.952 5.549l-9.001 45.907c-13.002-2.803-24.901-4.202-35.704-4.202-10.8 0-18.302 1-22.501 3-4.202 2.001-6.301 6.001-6.301 12.002v78.609c7.8 1.601 15.702 2.4 23.702 2.4 17.002 0 32.103-2.4 45.306-7.199z"/></g></svg>